<svg width="86" height="85" viewBox="0 0 86 85" fill="none" xmlns="http://www.w3.org/2000/svg">
<circle cx="43.5" cy="42.5" r="42.5" fill="#FFE799"/>
<path d="M43.5 28.5C47.3499 28.5 50.85 30.075 53.475 32.7L50.5 35.5H59.25V26.75L55.925 30.25C52.775 27.1 48.4 25 43.5 25C33.875 25 26 32.875 26 42.5H29.5C29.5 34.8 35.8 28.5 43.5 28.5Z" fill="black" fill-opacity="0.8"/>
<path d="M43.5 37.25C44.375 37.25 45.25 38.125 45.25 39H48.75C48.75 36.725 47.35 34.8 45.25 34.1V32H41.75V34.1C39.65 34.8 38.25 36.725 38.25 39C38.25 41.7999 40.525 44.25 43.5 44.25C44.55 44.25 45.25 45.125 45.25 45.9999C45.25 46.875 44.3749 47.7499 43.5 47.7499C42.6251 47.7499 41.75 46.875 41.75 46H38.25C38.25 48.275 39.65 50.2 41.75 50.9V53H45.2501V50.9C47.35 50.2 48.7501 48.275 48.7501 46C48.7501 43.025 46.4751 40.75 43.5001 40.75C42.6251 40.75 41.75 39.875 41.75 39C41.75 37.9501 42.6251 37.25 43.5 37.25Z" fill="black" fill-opacity="0.8"/>
<path d="M57.5 42.5C57.5 50.2 51.2 56.5 43.5 56.5C39.65 56.5 36.15 54.925 33.525 52.3L36.5 49.5H27.75V58.2501L31.075 54.75C34.225 57.9 38.5999 60 43.5 60C53.125 60 60.9999 52.125 60.9999 42.5001H57.5V42.5Z" fill="black" fill-opacity="0.8"/>
</svg>
