<svg width="86" height="85" viewBox="0 0 86 85" fill="none" xmlns="http://www.w3.org/2000/svg">
<circle cx="43.5" cy="42.5" r="42.5" fill="#FFE799"/>
<path d="M32.5625 50.1562H28.7344C28.4323 50.1562 28.1875 50.4011 28.1875 50.7031V56.1719C28.1875 56.4739 28.4323 56.7188 28.7344 56.7188H32.5625C32.8645 56.7188 33.1094 56.4739 33.1094 56.1719V50.7031C33.1094 50.4011 32.8645 50.1562 32.5625 50.1562Z" fill="black" fill-opacity="0.8"/>
<path d="M41.3125 47.4219H37.4844C37.1823 47.4219 36.9375 47.6667 36.9375 47.9688V56.1719C36.9375 56.4739 37.1823 56.7188 37.4844 56.7188H41.3125C41.6145 56.7188 41.8594 56.4739 41.8594 56.1719V47.9688C41.8594 47.6667 41.6145 47.4219 41.3125 47.4219Z" fill="black" fill-opacity="0.8"/>
<path d="M50.0625 44.1406H46.2344C45.9323 44.1406 45.6875 44.3855 45.6875 44.6875V56.1719C45.6875 56.4739 45.9323 56.7188 46.2344 56.7188H50.0625C50.3645 56.7188 50.6094 56.4739 50.6094 56.1719V44.6875C50.6094 44.3855 50.3645 44.1406 50.0625 44.1406Z" fill="black" fill-opacity="0.8"/>
<path d="M58.2656 38.6719H54.4375C54.1355 38.6719 53.8906 38.9167 53.8906 39.2188V56.1719C53.8906 56.4739 54.1355 56.7188 54.4375 56.7188H58.2656C58.5677 56.7188 58.8125 56.4739 58.8125 56.1719V39.2188C58.8125 38.9167 58.5677 38.6719 58.2656 38.6719Z" fill="black" fill-opacity="0.8"/>
<path d="M58.8728 27.9804L52.2502 28.2812C52.145 28.2868 52.0436 28.3226 51.9583 28.3844C51.873 28.4461 51.8073 28.5312 51.7692 28.6294C51.7311 28.7276 51.7222 28.8347 51.7434 28.9379C51.7647 29.041 51.8154 29.1358 51.8892 29.2109L53.2892 30.6109C50.4892 33.3845 47.4738 35.9318 44.2713 38.2289C38.4252 42.5 28.1877 44.6875 28.0728 44.6875C27.9278 44.6984 27.793 44.7664 27.6981 44.8767C27.6033 44.9869 27.5561 45.1303 27.567 45.2754C27.5778 45.4204 27.6459 45.5552 27.7561 45.6501C27.8664 45.7449 28.0098 45.7921 28.1549 45.7812C33.0767 46.082 40.2463 45.0101 45.3869 42.4398C49.6414 40.3735 53.4271 37.4569 56.5103 33.8703L58.2002 35.5601C58.275 35.6358 58.3703 35.6879 58.4743 35.7103C58.5783 35.7326 58.6866 35.724 58.7859 35.6857C58.8851 35.6474 58.9711 35.581 59.0331 35.4946C59.0952 35.4081 59.1307 35.3055 59.1353 35.1992L59.447 28.5492C59.4502 28.4732 59.4374 28.3974 59.4096 28.3266C59.3818 28.2558 59.3395 28.1916 59.2855 28.1381C59.2314 28.0845 59.1668 28.0429 59.0958 28.0157C59.0247 27.9886 58.9488 27.9766 58.8728 27.9804Z" fill="black" fill-opacity="0.8"/>
</svg>
