<svg width="80" height="80" viewBox="0 0 80 80" fill="none" xmlns="http://www.w3.org/2000/svg">
<circle cx="40" cy="40" r="40" fill="#B1ECFF"/>
<path d="M50 35L40 41.25L30 35V32.5L40 38.75L50 32.5M50 30H30C28.6125 30 27.5 31.1125 27.5 32.5V47.5C27.5 48.163 27.7634 48.7989 28.2322 49.2678C28.7011 49.7366 29.337 50 30 50H50C50.663 50 51.2989 49.7366 51.7678 49.2678C52.2366 48.7989 52.5 48.163 52.5 47.5V32.5C52.5 31.837 52.2366 31.2011 51.7678 30.7322C51.2989 30.2634 50.663 30 50 30Z" fill="#020304" fill-opacity="0.8"/>
</svg>
