<svg width="86" height="85" viewBox="0 0 86 85" fill="none" xmlns="http://www.w3.org/2000/svg">
<circle cx="43.5" cy="42.5" r="42.5" fill="#FFE799"/>
<path d="M41.4582 45.1251L38.2863 41.9532C38.0189 41.6858 37.6908 41.5522 37.3019 41.5522C36.913 41.5522 36.5728 41.698 36.2811 41.9897C36.0137 42.257 35.88 42.5973 35.88 43.0105C35.88 43.4237 36.0137 43.764 36.2811 44.0313L40.4373 48.1876C40.7047 48.4549 41.045 48.5886 41.4582 48.5886C41.8714 48.5886 42.2116 48.4549 42.479 48.1876L50.755 39.9115C51.0224 39.6442 51.1561 39.3161 51.1561 38.9272C51.1561 38.5383 51.0103 38.198 50.7186 37.9063C50.4512 37.639 50.1109 37.5053 49.6978 37.5053C49.2846 37.5053 48.9443 37.639 48.6769 37.9063L41.4582 45.1251ZM43.4998 57.0834C41.4825 57.0834 39.5866 56.7004 37.8123 55.9342C36.038 55.1691 34.4946 54.1303 33.1821 52.8178C31.8696 51.5053 30.8308 49.9619 30.0657 48.1876C29.2996 46.4133 28.9165 44.5174 28.9165 42.5001C28.9165 40.4827 29.2996 38.5869 30.0657 36.8126C30.8308 35.0383 31.8696 33.4949 33.1821 32.1824C34.4946 30.8699 36.038 29.8306 37.8123 29.0645C39.5866 28.2993 41.4825 27.9167 43.4998 27.9167C45.5172 27.9167 47.413 28.2993 49.1873 29.0645C50.9616 29.8306 52.505 30.8699 53.8175 32.1824C55.13 33.4949 56.1689 35.0383 56.934 36.8126C57.7001 38.5869 58.0832 40.4827 58.0832 42.5001C58.0832 44.5174 57.7001 46.4133 56.934 48.1876C56.1689 49.9619 55.13 51.5053 53.8175 52.8178C52.505 54.1303 50.9616 55.1691 49.1873 55.9342C47.413 56.7004 45.5172 57.0834 43.4998 57.0834Z" fill="#020304"/>
</svg>
