<svg width="86" height="85" viewBox="0 0 86 85" fill="none" xmlns="http://www.w3.org/2000/svg">
<circle cx="43.5" cy="42.5" r="42.5" fill="#FFE799"/>
<path d="M43.5 33.75C42.4184 33.75 41.3611 34.0707 40.4617 34.6717C39.5624 35.2726 38.8615 36.1267 38.4475 37.126C38.0336 38.1252 37.9253 39.2248 38.1363 40.2857C38.3473 41.3465 38.8682 42.3209 39.633 43.0857C40.3978 43.8506 41.3723 44.3714 42.4331 44.5824C43.4939 44.7934 44.5935 44.6851 45.5928 44.2712C46.5921 43.8573 47.4462 43.1564 48.0471 42.257C48.648 41.3577 48.9688 40.3004 48.9688 39.2188C48.9688 37.7683 48.3926 36.3773 47.367 35.3518C46.3414 34.3262 44.9504 33.75 43.5 33.75Z" fill="#020304"/>
<path d="M43.5 27.1875C40.4715 27.1875 37.511 28.0856 34.9928 29.7681C32.4747 31.4507 30.5121 33.8422 29.3531 36.6402C28.1941 39.4382 27.8909 42.517 28.4817 45.4873C29.0726 48.4577 30.5309 51.1861 32.6724 53.3276C34.8139 55.4691 37.5424 56.9274 40.5127 57.5183C43.483 58.1091 46.5619 57.8059 49.3598 56.6469C52.1578 55.4879 54.5493 53.5253 56.2319 51.0072C57.9144 48.489 58.8125 45.5285 58.8125 42.5C58.8079 38.4403 57.1931 34.5482 54.3225 31.6775C51.4518 28.8069 47.5597 27.1921 43.5 27.1875ZM52.2413 52.2628C52.2195 50.8282 51.6349 49.4595 50.6137 48.4517C49.5924 47.4439 48.2161 46.8777 46.7813 46.875H40.2188C38.784 46.8777 37.4076 47.4439 36.3864 48.4517C35.3651 49.4595 34.7806 50.8282 34.7588 52.2628C32.7753 50.4918 31.3766 48.16 30.7478 45.5764C30.119 42.9927 30.2898 40.279 31.2376 37.7945C32.1854 35.3101 33.8654 33.1721 36.0553 31.6637C38.2451 30.1554 40.8415 29.3477 43.5006 29.3477C46.1596 29.3477 48.756 30.1554 50.9459 31.6637C53.1357 33.1721 54.8158 35.3101 55.7635 37.7945C56.7113 40.279 56.8821 42.9927 56.2533 45.5764C55.6245 48.16 54.2247 50.4918 52.2413 52.2628Z" fill="#020304"/>
</svg>
