<svg width="80" height="80" viewBox="0 0 80 80" fill="none" xmlns="http://www.w3.org/2000/svg">
<circle cx="40" cy="40" r="40" fill="#D3AAFE"/>
<path d="M42.5988 26.875C42.7973 26.875 42.9906 26.938 43.151 27.0549C43.3114 27.1719 43.4305 27.3367 43.4913 27.5256L44.5225 30.73C44.9556 30.9419 45.37 31.18 45.7656 31.4481L49.0581 30.7394C49.2523 30.6979 49.4545 30.7192 49.6358 30.8C49.8171 30.8809 49.9681 31.0172 50.0669 31.1894L52.6656 35.6875C52.7649 35.8595 52.8069 36.0587 52.7857 36.2561C52.7645 36.4536 52.6811 36.6392 52.5475 36.7862L50.2881 39.28C50.321 39.7582 50.321 40.2381 50.2881 40.7162L52.5475 43.2137C52.6811 43.3608 52.7645 43.5464 52.7857 43.7439C52.8069 43.9413 52.7649 44.1405 52.6656 44.3125L50.0669 48.8125C49.9678 48.9843 49.8167 49.1202 49.6355 49.2008C49.4542 49.2813 49.2521 49.3022 49.0581 49.2606L45.7656 48.5519C45.3719 48.8181 44.9556 49.0581 44.5244 49.27L43.4913 52.4744C43.4305 52.6633 43.3114 52.8281 43.151 52.9451C42.9906 53.062 42.7973 53.125 42.5988 53.125H37.4013C37.2028 53.125 37.0094 53.062 36.849 52.9451C36.6886 52.8281 36.5695 52.6633 36.5088 52.4744L35.4794 49.2719C35.0474 49.0606 34.6308 48.8194 34.2325 48.55L30.9419 49.2606C30.7478 49.3021 30.5455 49.2808 30.3642 49.2C30.1829 49.1191 30.032 48.9828 29.9331 48.8106L27.3344 44.3125C27.2352 44.1405 27.1931 43.9413 27.2144 43.7439C27.2356 43.5464 27.319 43.3608 27.4525 43.2137L29.7119 40.7162C29.6792 40.2393 29.6792 39.7607 29.7119 39.2838L27.4525 36.7862C27.319 36.6392 27.2356 36.4536 27.2144 36.2561C27.1931 36.0587 27.2352 35.8595 27.3344 35.6875L29.9331 31.1875C30.0323 31.0157 30.1833 30.8798 30.3646 30.7992C30.5458 30.7187 30.748 30.6978 30.9419 30.7394L34.2325 31.45C34.63 31.1819 35.0463 30.94 35.4794 30.7281L36.5106 27.5256C36.5712 27.3373 36.6898 27.1729 36.8494 27.056C37.009 26.9392 37.2016 26.8758 37.3994 26.875H42.5969H42.5988ZM41.9125 28.75H38.0875L37.0225 32.0631L36.3044 32.4138C35.9514 32.5865 35.6106 32.7832 35.2844 33.0025L34.6206 33.4525L31.2156 32.7175L29.3031 36.0325L31.6375 38.6163L31.5813 39.4113C31.5543 39.8033 31.5543 40.1967 31.5813 40.5887L31.6375 41.3837L29.2994 43.9675L31.2138 47.2825L34.6188 46.5494L35.2825 46.9975C35.6087 47.2168 35.9495 47.4135 36.3025 47.5862L37.0206 47.9369L38.0875 51.25H41.9163L42.985 47.935L43.7013 47.5862C44.0539 47.4139 44.3941 47.2172 44.7194 46.9975L45.3813 46.5494L48.7881 47.2825L50.7006 43.9675L48.3644 41.3837L48.4206 40.5887C48.4477 40.1961 48.4477 39.802 48.4206 39.4094L48.3644 38.6144L50.7025 36.0325L48.7881 32.7175L45.3813 33.4488L44.7194 33.0025C44.3941 32.7828 44.0539 32.586 43.7013 32.4138L42.985 32.065L41.9144 28.75H41.9125ZM40 34.375C41.4919 34.375 42.9226 34.9676 43.9775 36.0225C45.0324 37.0774 45.625 38.5082 45.625 40C45.625 41.4918 45.0324 42.9226 43.9775 43.9775C42.9226 45.0324 41.4919 45.625 40 45.625C38.5082 45.625 37.0774 45.0324 36.0225 43.9775C34.9677 42.9226 34.375 41.4918 34.375 40C34.375 38.5082 34.9677 37.0774 36.0225 36.0225C37.0774 34.9676 38.5082 34.375 40 34.375ZM40 36.25C39.0055 36.25 38.0516 36.6451 37.3484 37.3483C36.6451 38.0516 36.25 39.0054 36.25 40C36.25 40.9946 36.6451 41.9484 37.3484 42.6516C38.0516 43.3549 39.0055 43.75 40 43.75C40.9946 43.75 41.9484 43.3549 42.6517 42.6516C43.3549 41.9484 43.75 40.9946 43.75 40C43.75 39.0054 43.3549 38.0516 42.6517 37.3483C41.9484 36.6451 40.9946 36.25 40 36.25Z" fill="#020304"/>
</svg>
