<svg width="68" height="68" viewBox="0 0 68 68" fill="none" xmlns="http://www.w3.org/2000/svg">
<g clip-path="url(#clip0_279_127)">
<path d="M34 68C52.7777 68 68 52.7777 68 34C68 15.2223 52.7777 0 34 0C15.2223 0 0 15.2223 0 34C0 52.7777 15.2223 68 34 68Z" fill="#020304"/>
<path fill-rule="evenodd" clip-rule="evenodd" d="M34 34.0007C34 30.3846 36.9314 27.4531 40.5476 27.4531C44.1637 27.4531 47.0951 30.3846 47.0951 34.0007C47.0951 37.6168 44.1637 40.5482 40.5476 40.5482C36.9314 40.5482 34 37.6168 34 34.0007Z" fill="#1ABCFE"/>
<path fill-rule="evenodd" clip-rule="evenodd" d="M20.9048 47.0954C20.9048 43.4793 23.8362 40.5479 27.4524 40.5479H33.9999V47.0954C33.9999 50.7115 31.0685 53.643 27.4524 53.643C23.8362 53.643 20.9048 50.7115 20.9048 47.0954Z" fill="#0ACF83"/>
<path fill-rule="evenodd" clip-rule="evenodd" d="M34 14.3574V27.4525H40.5476C44.1637 27.4525 47.0951 24.5211 47.0951 20.905C47.0951 17.2889 44.1637 14.3574 40.5476 14.3574H34Z" fill="#FF7262"/>
<path fill-rule="evenodd" clip-rule="evenodd" d="M20.9048 20.905C20.9048 24.5211 23.8362 27.4525 27.4524 27.4525H33.9999V14.3574H27.4524C23.8362 14.3574 20.9048 17.2889 20.9048 20.905Z" fill="#F24E1E"/>
<path fill-rule="evenodd" clip-rule="evenodd" d="M20.9048 34.0007C20.9048 37.6168 23.8362 40.5482 27.4524 40.5482H33.9999V27.4531H27.4524C23.8362 27.4531 20.9048 30.3846 20.9048 34.0007Z" fill="#A259FF"/>
</g>
<defs>
<clipPath id="clip0_279_127">
<rect width="68" height="68" fill="white"/>
</clipPath>
</defs>
</svg>
