<svg width="175" height="54" viewBox="0 0 175 54" fill="none" xmlns="http://www.w3.org/2000/svg">
<path d="M86.5366 37.6849V33.717H74.9964L86.1732 19.6324V15.9371H69.4232V19.9051H80.5091L69.3929 34.0502V37.6849H86.5366ZM98.8509 37.6849H102.274V27.5077C102.274 23.5398 99.7899 21.2075 95.5494 21.2075C91.6421 21.2075 88.9463 23.6306 88.704 27.3562H92.4902C92.6416 25.5389 93.732 24.4787 95.5494 24.4787C97.3062 24.4787 98.336 25.5389 98.336 27.3562V28.3255C97.3365 28.2043 96.5489 28.1438 95.6403 28.1438C90.9151 28.1438 88.3708 29.84 88.3708 32.9901C88.3708 36.019 90.6122 37.9878 93.9743 37.9878C96.1855 37.9878 97.7908 37.2003 98.8509 35.6858V37.6849ZM92.3387 32.8689C92.3387 31.415 93.52 30.6578 95.9129 30.6578C96.6398 30.6578 97.3365 30.7184 98.336 30.8698V32.0208C98.336 33.8987 97.0336 35.08 94.883 35.08C93.308 35.08 92.3387 34.2319 92.3387 32.8689ZM110.475 17.7545C110.475 16.2703 109.324 15.2102 107.659 15.2102C106.023 15.2102 104.872 16.2703 104.872 17.7545C104.872 19.1781 106.023 20.2382 107.659 20.2382C109.324 20.2382 110.475 19.1781 110.475 17.7545ZM109.809 37.6849V21.5104H105.599V37.6849H109.809ZM123.309 33.5958C122.703 33.929 121.976 34.1108 121.189 34.1108C119.674 34.1108 118.826 33.3535 118.826 31.4756V25.1148H123.46V21.5104H118.826V16.7247H114.646V21.5104H111.375V25.1148H114.646V32.4448C114.646 36.0796 116.736 37.9878 120.068 37.9878C121.31 37.9878 122.279 37.7758 123.309 37.2609V33.5958ZM135.36 37.6849H138.783V27.5077C138.783 23.5398 136.299 21.2075 132.059 21.2075C128.151 21.2075 125.456 23.6306 125.213 27.3562H128.999C129.151 25.5389 130.241 24.4787 132.059 24.4787C133.815 24.4787 134.845 25.5389 134.845 27.3562V28.3255C133.846 28.2043 133.058 28.1438 132.15 28.1438C127.424 28.1438 124.88 29.84 124.88 32.9901C124.88 36.019 127.122 37.9878 130.484 37.9878C132.695 37.9878 134.3 37.2003 135.36 35.6858V37.6849ZM128.848 32.8689C128.848 31.415 130.029 30.6578 132.422 30.6578C133.149 30.6578 133.846 30.7184 134.845 30.8698V32.0208C134.845 33.8987 133.543 35.08 131.392 35.08C129.817 35.08 128.848 34.2319 128.848 32.8689ZM155.769 32.5054C155.769 30.1731 154.163 28.7193 151.013 28.1135L147.893 27.538C146.44 27.2654 145.773 26.8716 145.773 25.9023C145.773 24.8725 146.803 24.297 148.348 24.297C150.135 24.297 151.316 25.2663 151.468 26.8413H155.496C155.193 23.358 152.407 21.2075 148.348 21.2075C144.319 21.2075 141.745 23.2975 141.745 26.2961C141.745 28.8101 143.501 30.4155 146.409 30.9304L149.317 31.4756C150.862 31.7785 151.528 32.2025 151.528 33.2324C151.528 34.3834 150.286 34.8983 148.651 34.8983C146.561 34.8983 145.137 33.8382 145.107 32.1722H141.078C141.411 35.7767 143.986 37.9878 148.59 37.9878C153.194 37.9878 155.769 35.8978 155.769 32.5054ZM162.55 37.6849V30.1731L168.729 37.6849H174.091L166.609 29.2645L173.303 21.5104H168.457L162.55 28.3558V15.9371H158.34V37.6849H162.55Z" fill="white"/>
<circle cx="26.7122" cy="26.7122" r="26.7122" fill="#FFE799"/>
<path d="M36.0587 16.0442C35.8365 16.0533 35.577 16.1486 35.4112 16.2929C33.4258 18.0158 31.4422 19.7397 29.4596 21.4653C29.4222 21.498 29.384 21.5306 29.3466 21.5633C29.3448 21.5633 29.3439 21.5651 29.3421 21.566L29.3366 21.5715C29.2255 21.6677 29.1144 21.7648 29.0042 21.862C27.7483 22.9549 26.4924 24.0478 25.2383 25.1426C23.6081 26.5614 21.9797 27.9829 20.3513 29.4017C20.2366 29.5016 20.0772 29.6359 20.0745 29.7575C20.0499 30.6054 20.0599 31.4532 20.0599 32.2548C20.6364 32.3864 21.1227 32.3601 21.5681 32.1985C21.5681 32.1985 21.5681 32.1985 21.5681 32.1967C21.9451 32.0605 22.2939 31.829 22.6455 31.5168C23.8904 30.4102 25.1418 29.3091 26.3959 28.2107C26.8995 27.7696 27.4031 27.3293 27.9068 26.89C27.9313 26.87 27.955 26.8482 27.9796 26.8273C30.2483 24.8494 32.5242 22.8795 34.7928 20.9043C34.9322 20.7845 35.077 20.6728 35.2773 20.5103V28.7744C34.4659 27.5926 33.6817 26.4542 32.8675 25.2687C32.0442 25.9904 31.3011 26.6449 30.5406 27.313C30.536 27.3175 30.5315 27.3221 30.5278 27.3248C30.6353 27.4782 30.7209 27.6053 30.8156 27.7287C30.9067 27.8476 30.9969 27.9675 31.0852 28.0891C31.975 29.2973 32.7273 30.5672 33.3438 31.9016H33.3457C33.8793 33.0572 34.3138 34.26 34.648 35.5081C34.7218 35.7859 34.7901 36.0664 34.8557 36.3487C35.0906 37.3835 35.0924 37.3835 36.1689 37.3835H38.3447V16.0333C37.5596 16.0333 36.8083 16.0143 36.0587 16.0442ZM30.8002 27.4192C30.7564 27.4001 30.7145 27.3829 30.6708 27.3656C30.7145 27.3829 30.7583 27.4001 30.8002 27.4174C30.8594 27.4437 30.9195 27.4691 30.9768 27.4954C30.9195 27.4691 30.8594 27.4437 30.8002 27.4192ZM29.8785 30.0008C29.6508 29.6622 29.4113 29.3282 29.1617 28.9987C29.098 28.9161 29.0352 28.8335 28.9705 28.7527C28.5862 29.0867 28.2128 29.4126 27.8503 29.7276C27.4587 30.0689 27.078 30.3993 26.7091 30.7198C26.7146 30.7297 26.721 30.7397 26.7283 30.7497C26.7237 30.7524 26.721 30.757 26.7164 30.7597C26.7875 30.8813 26.8676 31.0148 26.9532 31.1564C27.1508 31.485 27.374 31.8608 27.598 32.2357C27.7419 32.4771 27.8858 32.7177 28.0206 32.9446C28.4086 33.5946 28.7319 34.1392 28.8202 34.2872H24.5325C24.5598 34.2754 24.5908 34.2627 24.6181 34.2509H18.0617V33.7371C18.0617 32.2148 18.0763 30.6934 18.0526 29.173C18.0472 28.7881 18.1628 28.5366 18.4561 28.2815C19.385 27.4773 20.314 26.6712 21.2411 25.8642C21.6637 25.4966 22.0872 25.1289 22.5116 24.7622C22.5844 24.6987 22.6582 24.6351 22.7311 24.5716C22.7147 24.5698 22.701 24.5689 22.6828 24.567C22.6955 24.5552 22.7074 24.5453 22.7192 24.5353C22.721 24.5353 22.722 24.5335 22.7238 24.5326C24.4979 22.9903 26.2702 21.448 28.0406 19.9058C29.2701 18.8337 30.4996 17.7635 31.73 16.6914C31.9431 16.5063 32.1526 16.3165 32.4322 16.0678H15.0235V18.6776C15.019 18.6803 15.0162 18.683 15.0117 18.6867V24.322C15.0162 24.3192 15.019 24.3147 15.0235 24.312V24.3583C16.0089 23.5004 16.9397 22.7044 17.845 21.8847C17.9743 21.7676 18.0381 21.5261 18.0435 21.3382C18.0654 20.671 18.0535 20.0011 18.0535 19.313C18.0517 19.2504 18.0517 19.1886 18.0517 19.126H24.1627C23.986 19.2912 23.8713 19.402 23.752 19.5064C20.9533 21.9446 18.1546 24.3864 15.3477 26.8155C15.1492 26.9889 15.0317 27.1632 14.9853 27.3883C14.9807 27.4083 14.9762 27.4301 14.9734 27.4519C14.9634 27.5172 14.9589 27.5862 14.9589 27.6616C14.968 29.3944 14.9689 31.1264 14.9689 32.8593C14.9716 32.8611 14.9743 32.8639 14.9762 32.8648C14.978 32.8666 14.9807 32.8675 14.9816 32.8693V32.8956C14.9816 34.1873 14.9798 35.4809 14.9798 36.7726V37.3581H14.9871V37.3971H30.3284C30.3302 37.3953 30.3302 37.3926 30.3302 37.3917C30.3357 37.3799 30.3402 37.3699 30.3448 37.3581H32.9194C32.5105 35.2585 31.8047 33.3204 30.8047 31.5149C30.5215 30.9993 30.2127 30.4946 29.8785 30.0008Z" fill="#020304"/>
</svg>
