<svg width="100" height="101" viewBox="0 0 100 101" fill="none" xmlns="http://www.w3.org/2000/svg">
<path d="M50 100.094C77.6142 100.094 100 77.7085 100 50.0942C100 22.48 77.6142 0.0942383 50 0.0942383C22.3858 0.0942383 0 22.48 0 50.0942C0 77.7085 22.3858 100.094 50 100.094Z" fill="#020304"/>
<mask id="mask0_273_985" style="mask-type:luminance" maskUnits="userSpaceOnUse" x="27" y="27" width="47" height="47">
<path d="M73.6667 27.0942H27V73.7609H73.6667V27.0942Z" fill="white"/>
</mask>
<g mask="url(#mask0_273_985)">
<path d="M70.56 37.974H58.4235C57.9938 37.974 57.6456 38.3223 57.6456 38.7519C57.6456 39.1816 57.9939 39.5298 58.4235 39.5298H70.56C70.9888 39.5298 71.3379 39.8789 71.3379 40.3078V44.1977H58.8517C58.422 44.1977 58.0737 44.5461 58.0737 44.9757C58.0737 45.4052 58.4221 45.7536 58.8517 45.7536H71.3379V71.4267C71.3379 71.8556 70.9888 72.2047 70.56 72.2047H30.1054C29.6766 72.2047 29.3275 71.8556 29.3275 71.4267V45.7536H41.8137C42.2434 45.7536 42.5917 45.4052 42.5917 44.9757C42.5917 44.5461 42.2433 44.1977 41.8137 44.1977H29.3273V40.3078C29.3273 39.8789 29.6764 39.5298 30.1053 39.5298H42.2419C42.6716 39.5298 43.0198 39.1815 43.0198 38.7519C43.0198 38.3223 42.6715 37.974 42.2419 37.974H30.1054C28.8184 37.974 27.7715 39.0208 27.7715 40.3079V71.4268C27.7715 72.7138 28.8184 73.7607 30.1054 73.7607H70.56C71.847 73.7607 72.8939 72.7138 72.8939 71.4268V40.3079C72.8939 39.0208 71.847 37.974 70.56 37.974Z" fill="#FFE799"/>
<path d="M31.1089 41.3116C30.9687 41.4594 30.8833 41.6539 30.8833 41.8639C30.8833 42.074 30.9687 42.2686 31.1089 42.4162C31.2567 42.556 31.4511 42.6419 31.6612 42.6419C31.8633 42.6419 32.0658 42.556 32.2135 42.4162C32.3533 42.2685 32.4391 42.066 32.4391 41.8639C32.4391 41.6615 32.3533 41.4593 32.2135 41.3116C31.9176 41.0237 31.3965 41.0237 31.1089 41.3116Z" fill="#FFE799"/>
<path d="M34.2213 41.3116C34.081 41.4594 33.9956 41.6616 33.9956 41.8639C33.9956 42.0661 34.0812 42.2686 34.2213 42.4162C34.369 42.556 34.5712 42.6419 34.7736 42.6419C34.9757 42.6419 35.1782 42.556 35.3259 42.4162C35.4656 42.2685 35.5515 42.066 35.5515 41.8639C35.5515 41.6615 35.4656 41.4593 35.3259 41.3116C35.03 41.0237 34.5089 41.0237 34.2213 41.3116Z" fill="#FFE799"/>
<path d="M37.3331 41.3116C37.1928 41.4594 37.1074 41.6615 37.1074 41.8639C37.1074 42.074 37.1928 42.2685 37.3331 42.4083C37.4808 42.556 37.6753 42.642 37.8853 42.642C38.0954 42.642 38.29 42.556 38.4377 42.4163C38.5774 42.2685 38.6633 42.074 38.6633 41.864C38.6633 41.6615 38.5774 41.4594 38.4377 41.3117C38.1498 41.0237 37.6206 41.0237 37.3331 41.3116Z" fill="#FFE799"/>
<path d="M38.8125 53.8538C38.6552 54.0703 38.6199 54.3523 38.7191 54.6007L40.2751 58.4906C40.3624 58.7087 40.544 58.8758 40.7689 58.9449C40.8437 58.9681 40.9209 58.9794 40.9976 58.9794C41.1506 58.9794 41.3026 58.9343 41.4325 58.8465L45.7763 55.918C46.0488 56.6871 46.2981 57.312 46.4662 57.7198L46.4681 57.7228C46.5076 57.8177 46.5651 57.9031 46.6369 57.9746C46.6704 58.0079 46.7139 58.0261 46.7526 58.0525C46.7966 58.0829 46.8356 58.12 46.8856 58.141C46.9791 58.1801 47.08 58.2005 47.1828 58.2009L47.1857 58.2015H47.5185L46.5255 60.1874C46.4051 60.4287 46.418 60.715 46.5596 60.9445C46.7013 61.1736 46.9516 61.3133 47.2214 61.3133H53.4451C53.7149 61.3133 53.9652 61.1736 54.1069 60.9445C54.2486 60.715 54.2615 60.4287 54.1411 60.1874L53.1481 58.2015H53.2506C53.2907 58.2015 53.3253 58.1846 53.3637 58.1786C53.4029 58.1847 53.4416 58.2018 53.4805 58.2018C53.7862 58.2018 54.0764 58.0203 54.2003 57.7198C54.3683 57.3119 54.6178 56.6869 54.8903 55.918L59.234 58.8464C59.3639 58.9342 59.5158 58.9793 59.6689 58.9793C59.7456 58.9793 59.8227 58.9679 59.8976 58.9448C60.1225 58.8757 60.304 58.7085 60.3914 58.4905L61.9474 54.6006C62.0466 54.3522 62.0112 54.0703 61.854 53.8538L57.0867 47.3C57.4866 44.1659 57.4616 40.5723 56.3709 36.8835C55.3547 33.4494 53.5181 30.2385 50.9117 27.3404C50.6161 27.0122 50.0501 27.0122 49.7546 27.3404C47.1475 30.2396 45.3108 33.4507 44.2955 36.8835C43.2046 40.5723 43.1797 44.166 43.5796 47.3L38.8125 53.8538ZM48.4801 59.7574L49.2581 58.2014H51.4081L52.1861 59.7574H48.4801ZM56.7391 49.4673L60.3427 54.4218L59.3046 57.0174L55.4162 54.3961C55.8568 53.0735 56.3594 51.3951 56.7391 49.4673ZM45.7876 37.3249C46.6602 34.3744 48.1876 31.5927 50.3331 29.0453C52.4779 31.5919 54.0053 34.3738 54.8786 37.3249C55.9386 40.9088 55.9386 44.3658 55.5226 47.3805C55.5201 47.3948 55.5187 47.4083 55.5169 47.4226C55.048 50.7843 54.0628 53.5913 53.4313 55.3768C53.2567 55.8708 53.0942 56.295 52.9553 56.6455H47.7109C47.572 56.295 47.4095 55.8707 47.235 55.3763C46.6034 53.5911 45.6182 50.7843 45.1494 47.4226C45.1476 47.4083 45.1462 47.3948 45.1437 47.3806C44.7277 44.3658 44.7277 40.9088 45.7876 37.3249ZM45.2501 54.396L41.3617 57.0174L40.3236 54.4218L43.9271 49.4673C44.307 51.395 44.8096 53.0735 45.2501 54.396Z" fill="#FFE799"/>
<path d="M49.5552 65.2033V67.5372C49.5552 67.9669 49.9035 68.3152 50.3331 68.3152C50.7628 68.3152 51.1111 67.9668 51.1111 67.5372V65.2033C51.1111 64.7737 50.7627 64.4254 50.3331 64.4254C49.9035 64.4254 49.5552 64.7738 49.5552 65.2033Z" fill="#FFE799"/>
<path d="M46.4434 63.6473V65.9812C46.4434 66.4109 46.7918 66.7591 47.2214 66.7591C47.6509 66.7591 47.9993 66.4108 47.9993 65.9812V63.6473C47.9993 63.2176 47.6509 62.8694 47.2214 62.8694C46.7918 62.8694 46.4434 63.2176 46.4434 63.6473Z" fill="#FFE799"/>
<path d="M53.4454 62.8694C53.0157 62.8694 52.6675 63.2177 52.6675 63.6473V65.9812C52.6675 66.4109 53.0158 66.7591 53.4454 66.7591C53.875 66.7591 54.2233 66.4108 54.2233 65.9812V63.6473C54.2233 63.2177 53.875 62.8694 53.4454 62.8694Z" fill="#FFE799"/>
<path d="M50.3333 44.9758C52.478 44.9758 54.2232 43.2306 54.2232 41.0859C54.2232 38.9412 52.478 37.196 50.3333 37.196C48.1885 37.196 46.4434 38.9412 46.4434 41.0859C46.4434 43.2306 48.1885 44.9758 50.3333 44.9758ZM50.3333 38.752C51.6203 38.752 52.6672 39.7989 52.6672 41.0859C52.6672 42.373 51.6203 43.4199 50.3333 43.4199C49.0463 43.4199 47.9994 42.373 47.9994 41.0859C47.9994 39.7989 49.0464 38.752 50.3333 38.752Z" fill="#FFE799"/>
</g>
</svg>
