<svg width="100" height="101" viewBox="0 0 100 101" fill="none" xmlns="http://www.w3.org/2000/svg">
<path d="M50 100.094C77.6142 100.094 100 77.7085 100 50.0942C100 22.48 77.6142 0.0942383 50 0.0942383C22.3858 0.0942383 0 22.48 0 50.0942C0 77.7085 22.3858 100.094 50 100.094Z" fill="#020304"/>
<mask id="mask0_273_1005" style="mask-type:luminance" maskUnits="userSpaceOnUse" x="27" y="27" width="47" height="47">
<path d="M73.6667 27.0942H27V73.7609H73.6667V27.0942Z" fill="white"/>
</mask>
<g mask="url(#mask0_273_1005)">
<path d="M67.2277 27.0942H40.8467C39.4553 27.0942 38.3235 28.2261 38.3235 29.6174V30.7961H37.1421C35.7508 30.7961 34.619 31.9279 34.619 33.3192V34.4977H33.4384C32.0466 34.4977 30.9146 35.6294 30.9146 37.0204V71.2384C30.9146 72.6294 32.0466 73.7611 33.4384 73.7611H59.8181C61.2097 73.7611 62.342 72.6294 62.342 71.2384V70.0593H63.5233C64.9146 70.0593 66.0465 68.9274 66.0465 67.5361V66.3576H67.2279C68.6192 66.3576 69.7511 65.2257 69.7511 63.8343V29.6174C69.7509 28.2261 68.619 27.0942 67.2277 27.0942ZM59.8181 71.938H33.4384C33.0519 71.938 32.7375 71.6242 32.7375 71.2382V37.0202C32.7375 36.6344 33.0519 36.3205 33.4384 36.3205H53.8292V42.0937C53.8292 42.5971 54.2374 43.0052 54.7407 43.0052H60.5191V71.2382C60.519 71.6242 60.2046 71.938 59.8181 71.938ZM59.2288 41.1823H55.6521V37.6082L59.2288 41.1823ZM64.2235 67.536C64.2235 67.9227 63.91 68.2363 63.5232 68.2363H62.3419V42.0983C62.3419 42.098 62.3416 42.0812 62.3411 42.0549C62.3372 41.8329 62.2459 41.621 62.0891 41.4637C62.0843 41.4587 55.3849 34.7642 55.3849 34.7642C55.384 34.7633 55.374 34.754 55.3582 34.7391C55.1911 34.5827 54.9698 34.496 54.7409 34.4976H36.4419V33.3191C36.4419 32.9323 36.7554 32.6187 37.1421 32.6187H63.5232C63.91 32.6187 64.2235 32.9323 64.2235 33.3191V67.536ZM67.928 63.8343C67.928 64.2204 67.6139 64.5347 67.2276 64.5347H66.0463V33.3192C66.0463 31.9278 64.9145 30.7959 63.5231 30.7959H40.1464V29.6174C40.1464 29.2313 40.4605 28.9172 40.8467 28.9172H67.2276C67.6137 28.9172 67.928 29.2312 67.928 29.6174V63.8343Z" fill="#FFE799"/>
</g>
</svg>
