<svg width="100" height="101" viewBox="0 0 100 101" fill="none" xmlns="http://www.w3.org/2000/svg">
<path d="M50 100.094C77.6142 100.094 100 77.7085 100 50.0942C100 22.48 77.6142 0.0942383 50 0.0942383C22.3858 0.0942383 0 22.48 0 50.0942C0 77.7085 22.3858 100.094 50 100.094Z" fill="#020304"/>
<mask id="mask0_273_1017" style="mask-type:luminance" maskUnits="userSpaceOnUse" x="27" y="27" width="47" height="47">
<path d="M73.6667 27.0942H27V73.7609H73.6667V27.0942Z" fill="white"/>
</mask>
<g mask="url(#mask0_273_1017)">
<path d="M70.7506 73.7611H55.195C53.5869 73.7611 52.2783 72.4524 52.2783 70.8444V55.2889C52.2783 53.6808 53.5869 52.3722 55.195 52.3722H70.7506C72.3586 52.3722 73.6672 53.6808 73.6672 55.2889V70.8444C73.6672 72.4524 72.3586 73.7611 70.7506 73.7611ZM55.195 54.3166C54.6602 54.3166 54.2227 54.7522 54.2227 55.2889V70.8444C54.2227 71.3811 54.6602 71.8166 55.195 71.8166H70.7506C71.2852 71.8166 71.7227 71.3811 71.7227 70.8444V55.2889C71.7227 54.7522 71.2852 54.3166 70.7506 54.3166H55.195Z" fill="#FFE799"/>
<path d="M45.4722 73.7609H29.9167C28.3086 73.7609 27 72.4523 27 70.8442V30.0109C27 28.4028 28.3086 27.0942 29.9167 27.0942H45.4722C47.0802 27.0942 48.3889 28.4028 48.3889 30.0109V70.8442C48.3889 72.4523 47.0802 73.7609 45.4722 73.7609ZM29.9167 29.0387C29.3819 29.0387 28.9444 29.4742 28.9444 30.0109V70.8442C28.9444 71.3809 29.3819 71.8165 29.9167 71.8165H45.4722C46.0069 71.8165 46.4444 71.3809 46.4444 70.8442V30.0109C46.4444 29.4742 46.0069 29.0387 45.4722 29.0387H29.9167Z" fill="#FFE799"/>
<path d="M70.7506 48.4832H55.195C53.5869 48.4832 52.2783 47.1745 52.2783 45.5665V30.0109C52.2783 28.4028 53.5869 27.0942 55.195 27.0942H70.7506C72.3586 27.0942 73.6672 28.4028 73.6672 30.0109V45.5665C73.6672 47.1745 72.3586 48.4832 70.7506 48.4832ZM55.195 29.0387C54.6602 29.0387 54.2227 29.4742 54.2227 30.0109V45.5665C54.2227 46.1032 54.6602 46.5387 55.195 46.5387H70.7506C71.2852 46.5387 71.7227 46.1032 71.7227 45.5665V30.0109C71.7227 29.4742 71.2852 29.0387 70.7506 29.0387H55.195Z" fill="#FFE799"/>
</g>
</svg>
