<svg width="225" height="90" viewBox="0 0 225 90" fill="none" xmlns="http://www.w3.org/2000/svg">
<path d="M73.49 72.512L76.69 54.208H64.658L73.874 1.47199H56.594L3.602 56.256L0.785996 72.512H41.618L38.802 88H58.642L61.458 72.512H73.49ZM27.282 54.208L48.914 31.296L44.946 54.208H27.282ZM81.522 57.408C81.522 77.248 92.274 89.28 109.938 89.28C134.642 89.28 151.538 66.24 151.538 32.448C151.538 12.48 140.786 0.191994 123.122 0.191994C98.546 0.191994 81.522 23.744 81.522 57.408ZM103.538 56.512C103.538 36.544 111.73 19.392 121.202 19.392C126.706 19.392 129.522 24.128 129.522 33.216C129.522 53.056 121.586 70.08 112.114 70.08C106.482 70.08 103.538 65.6 103.538 56.512ZM221.31 72.512L224.51 54.208H212.478L221.694 1.47199H204.414L151.422 56.256L148.606 72.512H189.438L186.622 88H206.462L209.278 72.512H221.31ZM175.102 54.208L196.734 31.296L192.766 54.208H175.102Z" fill="#020304"/>
</svg>
