<svg width="175" height="54" viewBox="0 0 175 54" fill="none" xmlns="http://www.w3.org/2000/svg">
<path d="M86.5365 37.6849V33.717H74.9963L86.173 19.6324V15.9371H69.423V19.905H80.5089L69.3927 34.0502V37.6849H86.5365ZM98.8508 37.6849H102.274V27.5076C102.274 23.5397 99.7898 21.2075 95.5493 21.2075C91.6419 21.2075 88.9462 23.6306 88.7039 27.3562H92.49C92.6415 25.5388 93.7319 24.4787 95.5493 24.4787C97.306 24.4787 98.3359 25.5388 98.3359 27.3562V28.3255C97.3363 28.2043 96.5488 28.1437 95.6401 28.1437C90.915 28.1437 88.3707 29.8399 88.3707 32.99C88.3707 36.019 90.6121 37.9878 93.9742 37.9878C96.1853 37.9878 97.7907 37.2002 98.8508 35.6858V37.6849ZM92.3386 32.8689C92.3386 31.415 93.5199 30.6577 95.9127 30.6577C96.6397 30.6577 97.3363 30.7183 98.3359 30.8698V32.0208C98.3359 33.8987 97.0334 35.08 94.8829 35.08C93.3078 35.08 92.3386 34.2319 92.3386 32.8689ZM110.475 17.7545C110.475 16.2703 109.324 15.2102 107.658 15.2102C106.023 15.2102 104.872 16.2703 104.872 17.7545C104.872 19.1781 106.023 20.2382 107.658 20.2382C109.324 20.2382 110.475 19.1781 110.475 17.7545ZM109.809 37.6849V21.5104H105.599V37.6849H109.809ZM123.309 33.5958C122.703 33.929 121.976 34.1107 121.188 34.1107C119.674 34.1107 118.826 33.3535 118.826 31.4756V25.1148H123.46V21.5104H118.826V16.7246H114.646V21.5104H111.375V25.1148H114.646V32.4448C114.646 36.0795 116.736 37.9878 120.068 37.9878C121.31 37.9878 122.279 37.7757 123.309 37.2608V33.5958ZM135.36 37.6849H138.783V27.5076C138.783 23.5397 136.299 21.2075 132.059 21.2075C128.151 21.2075 125.456 23.6306 125.213 27.3562H128.999C129.151 25.5388 130.241 24.4787 132.059 24.4787C133.815 24.4787 134.845 25.5388 134.845 27.3562V28.3255C133.846 28.2043 133.058 28.1437 132.149 28.1437C127.424 28.1437 124.88 29.8399 124.88 32.99C124.88 36.019 127.121 37.9878 130.484 37.9878C132.695 37.9878 134.3 37.2002 135.36 35.6858V37.6849ZM128.848 32.8689C128.848 31.415 130.029 30.6577 132.422 30.6577C133.149 30.6577 133.846 30.7183 134.845 30.8698V32.0208C134.845 33.8987 133.543 35.08 131.392 35.08C129.817 35.08 128.848 34.2319 128.848 32.8689ZM155.769 32.5054C155.769 30.1731 154.163 28.7192 151.013 28.1134L147.893 27.5379C146.439 27.2653 145.773 26.8716 145.773 25.9023C145.773 24.8725 146.803 24.297 148.348 24.297C150.135 24.297 151.316 25.2662 151.467 26.8413H155.496C155.193 23.358 152.406 21.2075 148.348 21.2075C144.319 21.2075 141.745 23.2974 141.745 26.2961C141.745 28.8101 143.501 30.4154 146.409 30.9303L149.317 31.4756C150.862 31.7785 151.528 32.2025 151.528 33.2323C151.528 34.3833 150.286 34.8983 148.651 34.8983C146.561 34.8983 145.137 33.8381 145.107 32.1722H141.078C141.411 35.7766 143.986 37.9878 148.59 37.9878C153.194 37.9878 155.769 35.8978 155.769 32.5054ZM162.55 37.6849V30.1731L168.729 37.6849H174.091L166.609 29.2644L173.303 21.5104H168.457L162.55 28.3558V15.9371H158.34V37.6849H162.55Z" fill="white"/>
<circle cx="26.7122" cy="26.7122" r="26.7122" fill="#020304"/>
<path d="M36.0589 16.0442C35.8366 16.0533 35.5771 16.1486 35.4113 16.2929C33.4259 18.0158 31.4423 19.7397 29.4597 21.4653C29.4223 21.498 29.3841 21.5306 29.3468 21.5633C29.3449 21.5633 29.344 21.5651 29.3422 21.566L29.3367 21.5715C29.2256 21.6677 29.1145 21.7648 29.0043 21.862C27.7484 22.9549 26.4925 24.0478 25.2384 25.1426C23.6082 26.5614 21.9798 27.9829 20.3514 29.4017C20.2367 29.5016 20.0773 29.6359 20.0746 29.7575C20.05 30.6054 20.06 31.4532 20.06 32.2548C20.6365 32.3864 21.1228 32.3601 21.5682 32.1985C21.5682 32.1985 21.5682 32.1985 21.5682 32.1967C21.9452 32.0605 22.294 31.829 22.6456 31.5168C23.8905 30.4102 25.1419 29.3091 26.396 28.2107C26.8996 27.7696 27.4032 27.3293 27.9069 26.89C27.9315 26.87 27.9551 26.8482 27.9797 26.8273C30.2484 24.8494 32.5243 22.8795 34.7929 20.9043C34.9323 20.7845 35.0771 20.6728 35.2774 20.5103V28.7744C34.466 27.5926 33.6818 26.4542 32.8676 25.2687C32.0443 25.9904 31.3012 26.6449 30.5407 27.313C30.5362 27.3175 30.5316 27.3221 30.528 27.3248C30.6354 27.4782 30.721 27.6053 30.8158 27.7287C30.9068 27.8476 30.997 27.9675 31.0853 28.0891C31.9751 29.2973 32.7274 30.5672 33.344 31.9016H33.3458C33.8795 33.0572 34.3139 34.26 34.6481 35.5081C34.7219 35.7859 34.7902 36.0664 34.8558 36.3487C35.0907 37.3835 35.0926 37.3835 36.1691 37.3835H38.3448V16.0333C37.5597 16.0333 36.8084 16.0143 36.0589 16.0442ZM30.8003 27.4192C30.7566 27.4001 30.7147 27.3829 30.671 27.3656C30.7147 27.3829 30.7584 27.4001 30.8003 27.4174C30.8595 27.4437 30.9196 27.4691 30.977 27.4954C30.9196 27.4691 30.8595 27.4437 30.8003 27.4192ZM29.8786 30.0008C29.6509 29.6622 29.4114 29.3282 29.1619 28.9987C29.0981 28.9161 29.0353 28.8335 28.9706 28.7527C28.5863 29.0867 28.2129 29.4126 27.8504 29.7276C27.4588 30.0689 27.0781 30.3993 26.7093 30.7198C26.7147 30.7297 26.7211 30.7397 26.7284 30.7497C26.7238 30.7524 26.7211 30.757 26.7166 30.7597C26.7876 30.8813 26.8677 31.0148 26.9533 31.1564C27.151 31.485 27.3741 31.8608 27.5981 32.2357C27.742 32.4771 27.8859 32.7177 28.0207 32.9446C28.4087 33.5946 28.732 34.1392 28.8203 34.2872H24.5326C24.5599 34.2754 24.5909 34.2627 24.6182 34.2509H18.0619V33.7371C18.0619 32.2148 18.0764 30.6934 18.0527 29.173C18.0473 28.7881 18.1629 28.5366 18.4562 28.2815C19.3851 27.4773 20.3141 26.6712 21.2412 25.8642C21.6638 25.4966 22.0873 25.1289 22.5117 24.7622C22.5846 24.6987 22.6583 24.6351 22.7312 24.5716C22.7148 24.5698 22.7011 24.5689 22.6829 24.567C22.6957 24.5552 22.7075 24.5453 22.7193 24.5353C22.7212 24.5353 22.7221 24.5335 22.7239 24.5326C24.498 22.9903 26.2703 21.448 28.0408 19.9058C29.2702 18.8337 30.4997 17.7635 31.7301 16.6914C31.9432 16.5063 32.1527 16.3165 32.4323 16.0678H15.0236V18.6776C15.0191 18.6803 15.0164 18.683 15.0118 18.6867V24.322C15.0164 24.3192 15.0191 24.3147 15.0236 24.312V24.3583C16.0091 23.5004 16.9398 22.7044 17.8451 21.8847C17.9744 21.7676 18.0382 21.5261 18.0436 21.3382C18.0655 20.671 18.0537 20.0011 18.0537 19.313C18.0518 19.2504 18.0518 19.1886 18.0518 19.126H24.1629C23.9862 19.2912 23.8714 19.402 23.7521 19.5064C20.9534 21.9446 18.1547 24.3864 15.3479 26.8155C15.1493 26.9889 15.0318 27.1632 14.9854 27.3883C14.9808 27.4083 14.9763 27.4301 14.9736 27.4519C14.9635 27.5172 14.959 27.5862 14.959 27.6616C14.9681 29.3944 14.969 31.1264 14.969 32.8593C14.9717 32.8611 14.9745 32.8639 14.9763 32.8648C14.9781 32.8666 14.9808 32.8675 14.9818 32.8693V32.8956C14.9818 34.1873 14.9799 35.4809 14.9799 36.7726V37.3581H14.9872V37.3971H30.3285C30.3303 37.3953 30.3303 37.3926 30.3303 37.3917C30.3358 37.3799 30.3404 37.3699 30.3449 37.3581H32.9196C32.5106 35.2585 31.8048 33.3204 30.8048 31.5149C30.5216 30.9993 30.2129 30.4946 29.8786 30.0008Z" fill="#FFE799"/>
</svg>
