<svg xmlns="http://www.w3.org/2000/svg" xmlns:xlink="http://www.w3.org/1999/xlink" width="500" zoomAndPan="magnify" viewBox="0 0 375 187.499995" height="250" preserveAspectRatio="xMidYMid meet" version="1.0"><defs><g/><clipPath id="6f4ec11eb9"><path d="M 49 18 L 125 18 L 125 91 L 49 91 Z M 49 18 " clip-rule="nonzero"/></clipPath><clipPath id="8964851137"><path d="M 70.117188 13.261719 L 129.589844 67.933594 L 103.960938 95.8125 L 44.488281 41.136719 Z M 70.117188 13.261719 " clip-rule="nonzero"/></clipPath><clipPath id="9cfec4c374"><path d="M 79.476562 21.867188 L 119.96875 59.089844 C 122.453125 61.375 123.925781 64.550781 124.070312 67.917969 C 124.210938 71.289062 123.007812 74.578125 120.726562 77.058594 L 112.546875 85.957031 C 110.265625 88.4375 107.089844 89.914062 103.71875 90.054688 C 100.351562 90.195312 97.0625 88.992188 94.582031 86.710938 L 54.085938 49.484375 C 51.605469 47.203125 50.128906 44.027344 49.988281 40.660156 C 49.847656 37.289062 51.050781 34 53.332031 31.519531 L 61.511719 22.621094 C 63.792969 20.140625 66.96875 18.664062 70.335938 18.523438 C 73.707031 18.382812 76.996094 19.585938 79.476562 21.867188 " clip-rule="nonzero"/></clipPath><clipPath id="cc8491bd9e"><path d="M 13 96 L 88 96 L 88 169 L 13 169 Z M 13 96 " clip-rule="nonzero"/></clipPath><clipPath id="9cf1d93dfa"><path d="M 34.011719 91.605469 L 93.140625 146.648438 L 67.339844 174.367188 L 8.210938 119.320312 Z M 34.011719 91.605469 " clip-rule="nonzero"/></clipPath><clipPath id="73bcbddfcc"><path d="M 43.320312 100.269531 L 83.648438 137.8125 C 86.117188 140.109375 87.570312 143.296875 87.691406 146.664062 C 87.8125 150.035156 86.589844 153.316406 84.289062 155.785156 L 76.238281 164.433594 C 73.941406 166.902344 70.757812 168.355469 67.386719 168.476562 C 64.015625 168.597656 60.734375 167.375 58.265625 165.078125 L 17.9375 127.535156 C 15.46875 125.234375 14.015625 122.050781 13.894531 118.679688 C 13.773438 115.308594 14.996094 112.03125 17.296875 109.5625 L 25.347656 100.914062 C 27.644531 98.445312 30.828125 96.988281 34.199219 96.867188 C 37.570312 96.75 40.851562 97.972656 43.320312 100.269531 " clip-rule="nonzero"/></clipPath><clipPath id="4de2398d4e"><path d="M 21 48 L 117 48 L 117 139 L 21 139 Z M 21 48 " clip-rule="nonzero"/></clipPath><clipPath id="0e825dc006"><path d="M 41.835938 43.25 L 121.824219 116.640625 L 96.222656 144.542969 L 16.234375 71.152344 Z M 41.835938 43.25 " clip-rule="nonzero"/></clipPath><clipPath id="ef80211df9"><path d="M 51.207031 51.847656 L 112.046875 107.667969 C 114.53125 109.949219 116.007812 113.121094 116.152344 116.492188 C 116.296875 119.863281 115.097656 123.152344 112.816406 125.636719 L 104.609375 134.582031 C 102.328125 137.066406 99.15625 138.542969 95.785156 138.6875 C 92.417969 138.832031 89.128906 137.632812 86.644531 135.355469 L 25.804688 79.53125 C 23.320312 77.25 21.839844 74.078125 21.695312 70.707031 C 21.550781 67.339844 22.75 64.050781 25.03125 61.566406 L 33.238281 52.617188 C 35.519531 50.132812 38.695312 48.65625 42.0625 48.511719 C 45.433594 48.367188 48.722656 49.566406 51.207031 51.847656 " clip-rule="nonzero"/></clipPath></defs><g clip-path="url(#6f4ec11eb9)"><g clip-path="url(#8964851137)"><g clip-path="url(#9cfec4c374)"><path fill="#ff914d" d="M 70.117188 13.261719 L 129.125 67.507812 L 103.921875 94.917969 L 44.914062 40.671875 Z M 70.117188 13.261719 " fill-opacity="1" fill-rule="nonzero"/></g></g></g><g clip-path="url(#cc8491bd9e)"><g clip-path="url(#9cf1d93dfa)"><g clip-path="url(#73bcbddfcc)"><path fill="#ff914d" d="M 34.011719 91.605469 L 93.140625 146.648438 L 67.769531 173.90625 L 8.640625 118.859375 Z M 34.011719 91.605469 " fill-opacity="1" fill-rule="nonzero"/></g></g></g><g clip-path="url(#4de2398d4e)"><g clip-path="url(#0e825dc006)"><g clip-path="url(#ef80211df9)"><path fill="#ff914d" d="M 41.835938 43.25 L 121.359375 116.214844 L 95.757812 144.117188 L 16.234375 71.152344 Z M 41.835938 43.25 " fill-opacity="1" fill-rule="nonzero"/></g></g></g><g fill="#2e2d2d" fill-opacity="1"><g transform="translate(168.10445, 136.971733)"><g><path d="M 36.078125 -51.5625 L 36.078125 -38.84375 L 20.15625 -38.84375 C 19.59375 -38.84375 18.921875 -38.734375 18.140625 -38.515625 C 17.367188 -38.304688 16.984375 -37.632812 16.984375 -36.5 C 16.984375 -35.71875 17.582031 -34.9375 18.78125 -34.15625 C 19.976562 -33.382812 21.710938 -32.46875 23.984375 -31.40625 C 28.648438 -29.21875 32.289062 -26.9375 34.90625 -24.5625 C 37.53125 -22.195312 38.84375 -19.242188 38.84375 -15.703125 C 38.84375 -13.222656 38.398438 -11.007812 37.515625 -9.0625 C 36.628906 -7.125 35.425781 -5.484375 33.90625 -4.140625 C 32.382812 -2.796875 30.578125 -1.769531 28.484375 -1.0625 C 26.398438 -0.351562 24.191406 0 21.859375 0 L 2.4375 0 L 2.4375 -12.734375 L 20.15625 -12.734375 C 21.21875 -12.734375 22.082031 -13 22.75 -13.53125 C 23.425781 -14.0625 23.765625 -14.75 23.765625 -15.59375 C 23.765625 -16.582031 23.21875 -17.554688 22.125 -18.515625 C 21.03125 -19.472656 19.207031 -20.585938 16.65625 -21.859375 C 11.988281 -24.191406 8.539062 -26.421875 6.3125 -28.546875 C 4.082031 -30.671875 2.96875 -33.320312 2.96875 -36.5 C 2.96875 -41.238281 4.414062 -44.929688 7.3125 -47.578125 C 10.21875 -50.234375 14.21875 -51.5625 19.3125 -51.5625 Z M 36.078125 -51.5625 "/></g></g></g><g fill="#2e2d2d" fill-opacity="1"><g transform="translate(209.373366, 136.971733)"><g><path d="M 18.5625 -74.28125 L 18.5625 0 L 4.984375 0 L 4.984375 -74.28125 Z M 18.5625 -74.28125 "/></g></g></g><g fill="#2e2d2d" fill-opacity="1"><g transform="translate(232.925274, 136.971733)"><g><path d="M 54.109375 0 L 40.53125 0 L 40.53125 -29.28125 C 40.53125 -32.113281 39.519531 -34.484375 37.5 -36.390625 C 35.488281 -38.304688 32.46875 -39.265625 28.4375 -39.265625 C 26.8125 -39.265625 25.304688 -38.910156 23.921875 -38.203125 C 22.546875 -37.492188 21.34375 -36.519531 20.3125 -35.28125 C 19.289062 -34.039062 18.476562 -32.609375 17.875 -30.984375 C 17.28125 -29.359375 16.984375 -27.625 16.984375 -25.78125 C 16.984375 -24.082031 17.28125 -22.472656 17.875 -20.953125 C 18.476562 -19.429688 19.3125 -18.125 20.375 -17.03125 C 21.4375 -15.9375 22.691406 -15.050781 24.140625 -14.375 C 25.585938 -13.707031 27.160156 -13.375 28.859375 -13.375 C 30.347656 -13.375 31.675781 -13.515625 32.84375 -13.796875 C 34.007812 -14.078125 35.265625 -14.46875 36.609375 -14.96875 L 36.609375 -0.84375 C 34.835938 -0.488281 33.28125 -0.191406 31.9375 0.046875 C 30.59375 0.296875 29.285156 0.421875 28.015625 0.421875 C 24.335938 0.421875 20.992188 -0.210938 17.984375 -1.484375 C 14.972656 -2.753906 12.390625 -4.519531 10.234375 -6.78125 C 8.078125 -9.050781 6.394531 -11.757812 5.1875 -14.90625 C 3.988281 -18.050781 3.390625 -21.5 3.390625 -25.25 C 3.390625 -29.21875 4.023438 -32.894531 5.296875 -36.28125 C 6.578125 -39.675781 8.332031 -42.59375 10.5625 -45.03125 C 12.789062 -47.476562 15.441406 -49.390625 18.515625 -50.765625 C 21.585938 -52.148438 24.96875 -52.84375 28.65625 -52.84375 C 32.539062 -52.84375 36.039062 -52.257812 39.15625 -51.09375 C 42.269531 -49.925781 44.941406 -48.316406 47.171875 -46.265625 C 49.398438 -44.210938 51.113281 -41.804688 52.3125 -39.046875 C 53.507812 -36.285156 54.109375 -33.316406 54.109375 -30.140625 Z M 54.109375 0 "/></g></g></g><g fill="#2e2d2d" fill-opacity="1"><g transform="translate(291.911138, 136.971733)"><g><path d="M 41.59375 -44.984375 C 45.976562 -50.222656 51.425781 -52.84375 57.9375 -52.84375 C 60.769531 -52.84375 63.382812 -52.414062 65.78125 -51.5625 C 68.1875 -50.71875 70.253906 -49.535156 71.984375 -48.015625 C 73.722656 -46.492188 75.066406 -44.707031 76.015625 -42.65625 C 76.972656 -40.601562 77.453125 -38.375 77.453125 -35.96875 L 77.453125 0 L 63.234375 0 L 63.234375 -31.296875 C 63.234375 -33.566406 62.664062 -35.460938 61.53125 -36.984375 C 60.40625 -38.503906 58.601562 -39.265625 56.125 -39.265625 C 52.726562 -39.265625 50.148438 -37.671875 48.390625 -34.484375 L 48.390625 0 L 34.171875 0 L 34.171875 -31.296875 C 34.171875 -33.703125 33.566406 -35.628906 32.359375 -37.078125 C 31.160156 -38.535156 29.285156 -39.265625 26.734375 -39.265625 C 24.191406 -39.265625 22.316406 -38.535156 21.109375 -37.078125 C 19.910156 -35.628906 19.3125 -33.703125 19.3125 -31.296875 L 19.3125 0 L 5.09375 0 L 5.09375 -35.96875 C 5.09375 -41.132812 6.929688 -45.238281 10.609375 -48.28125 C 14.285156 -51.320312 19.453125 -52.84375 26.109375 -52.84375 C 28.929688 -52.84375 31.738281 -52.082031 34.53125 -50.5625 C 37.332031 -49.039062 39.6875 -47.179688 41.59375 -44.984375 Z M 41.59375 -44.984375 "/></g></g></g></svg>