<svg width="100" height="100" viewBox="0 0 100 100" fill="none" xmlns="http://www.w3.org/2000/svg">
<circle cx="50" cy="50" r="50" fill="#020304" fill-opacity="0.09"/>
<path fill-rule="evenodd" clip-rule="evenodd" d="M33.5435 54.5096C31.3801 55.2213 28.8842 55.2073 26.8442 54.1433C22.1335 51.6804 20.0935 45.3313 21.9895 38.6054C22.8397 35.5878 24.338 32.6575 27.5059 29.7027C30.6738 26.7444 35.0692 25.0002 37.1057 25.0002C37.2771 24.9974 37.4473 25.0291 37.6066 25.0934C37.766 25.1576 37.9112 25.2533 38.0342 25.3748C38.1571 25.4964 38.2553 25.6414 38.323 25.8016C38.3908 25.9618 38.4268 26.134 38.4291 26.3084C38.4291 27.0305 37.8257 27.6166 37.1057 27.6166C34.7777 27.6166 32.6966 28.9073 30.2316 30.8051C28.3459 32.2598 26.8716 34.1192 26.0591 35.7378C24.4991 38.8357 24.4477 43.2033 26.9676 44.365C27.5527 43.6893 28.2737 43.1496 29.0817 42.7825C29.8898 42.4153 30.766 42.2293 31.651 42.237C35.7651 42.237 38.1891 45.6034 38.0828 48.6524C37.9834 51.5653 36.1628 53.641 33.5435 54.5096ZM54.1144 54.5096C51.951 55.2213 49.4551 55.2073 47.4151 54.1433C42.7044 51.6804 40.6645 45.3313 42.5604 38.6054C43.4107 35.5878 44.9089 32.6575 48.0768 29.7027C51.2448 26.7444 55.6401 25.0002 57.6766 25.0002C57.848 24.9974 58.0182 25.0291 58.1775 25.0934C58.3369 25.1576 58.4822 25.2533 58.6051 25.3748C58.728 25.4963 58.8262 25.6414 58.894 25.8016C58.9617 25.9618 58.9978 26.134 59 26.3084C59 27.0305 58.3966 27.6166 57.6766 27.6166C55.3487 27.6166 53.2676 28.9073 50.8025 30.8051C48.9168 32.2598 47.4426 34.1192 46.63 35.7378C45.0701 38.8357 45.0186 43.2033 47.5386 44.365C48.7488 43.0184 50.3294 42.237 52.2219 42.237C56.3361 42.237 58.76 45.6034 58.6537 48.6524C58.5543 51.5653 56.7338 53.6409 54.1144 54.5096Z" fill="black" fill-opacity="0.8"/>
</svg>
