<svg width="108" height="103" viewBox="0 0 108 103" fill="none" xmlns="http://www.w3.org/2000/svg">
<path d="M75.5439 96.4501C75.3566 96.789 75.1208 97.0988 74.8439 97.3697C74.5571 97.6503 74.2162 97.8698 73.842 98.0148C73.5081 98.1428 73.156 98.2169 72.7988 98.2344C72.4145 98.2344 72.0302 98.2344 71.6596 98.2344C71.0694 98.056 70.493 97.8913 69.9028 97.6854L68.1185 96.8207C67.542 96.5736 66.9106 96.1481 66.4577 95.9011C66.0047 95.654 65.7988 95.503 65.4832 95.2834C64.6459 94.7481 63.7675 94.3089 62.9851 93.705C62.2028 93.1011 61.6126 92.6481 60.9675 92.0717L59.1145 90.2599C58.5243 89.6148 57.9204 88.9971 57.3577 88.352C56.7949 87.7069 56.2047 87.0756 55.6694 86.403C54.6812 85.2501 53.7067 84.0834 52.8283 82.8344C51.6047 81.2375 50.832 79.3415 50.591 77.3442C50.5086 76.7403 50.9341 76.7403 51.5518 77.056C52.3293 77.4972 53.0181 78.0789 53.5832 78.7717C55.4918 81.7946 57.842 84.5149 60.5557 86.8422C61.3997 87.5945 62.3197 88.2569 63.3008 88.8187C63.7949 89.1069 64.2616 89.4226 64.742 89.7246L66.1145 90.6167C66.9243 91.1109 67.8577 91.6736 68.5577 92.0717C68.9142 92.3142 69.2855 92.5342 69.6694 92.7305C69.9005 92.8764 70.1564 92.9787 70.4243 93.0324C70.6132 93.09 70.815 92.995 70.891 92.8128C70.953 92.6493 70.9945 92.4787 71.0145 92.305C71.0268 91.9234 70.9992 91.5416 70.9322 91.1658C70.9322 90.7952 70.5479 89.3815 70.2459 88.2697C69.9439 87.1579 69.5734 85.9638 69.189 84.8246C68.4542 83.0662 67.8128 81.2703 67.2675 79.4442C67.1317 79.0269 67.0262 78.6003 66.9518 78.1677C66.8223 77.543 66.9145 76.8927 67.2126 76.3285C67.456 75.9139 67.866 75.6239 68.3381 75.5324C68.5665 75.4553 68.8005 75.3957 69.0381 75.354C69.8204 75.354 70.4106 75.8618 70.9871 76.7266C71.7145 78.0991 72.3596 79.4717 73.1557 80.9677C73.9518 82.4638 74.2537 84.1246 74.7753 85.7991L75.2969 87.7069L75.5439 88.6952L75.8459 90.0677C76.4224 92.5795 76.5185 94.9952 75.64 96.505L75.5439 96.4501Z" fill="#020304" fill-opacity="0.06"/>
<path d="M17.2795 36.1666C19.1144 38.5259 21.0802 40.7804 23.1677 42.9195L26.3795 46.1725L27.5325 47.3254C28.0108 47.7841 28.4304 48.3005 28.7815 48.8627C29.1059 49.3202 29.2252 49.892 29.1109 50.4411L28.356 51.9509L27.1619 53.1587L26.407 53.9685C25.9815 54.4078 25.5697 54.8607 25.1579 55.3411C23.4148 57.3038 21.8638 59.4587 20.3128 61.5725C17.5626 65.3245 15.1555 69.3164 13.1207 73.4999C12.6128 74.5431 12.1462 75.5999 11.7481 76.6705C11.3501 77.7411 11.1168 78.2901 10.9658 78.798C10.7679 79.3039 10.7064 79.8529 10.7874 80.3901C10.9109 80.7058 11.254 80.5685 11.4462 80.3901L12.0913 79.9372L16.2089 77.0274C17.9795 75.8195 19.7776 74.6529 21.603 73.5548C23.9675 72.1278 26.4306 70.871 28.9736 69.794L30.9364 69.0529C31.5952 68.8195 32.3089 68.6411 32.9403 68.4489C33.6184 68.2425 34.3188 68.118 35.0266 68.0783C35.7275 67.9886 36.4337 67.9473 37.1403 67.9548C38.8972 67.9548 38.6364 68.3117 37.3462 69.1215C37.0305 69.3411 36.6462 69.5607 36.2207 69.8489L34.8481 70.8509C33.7058 71.5755 32.5133 72.2177 31.2795 72.7725C28.8795 73.8749 26.5508 75.1264 24.307 76.5195C22.0011 77.9104 19.7364 79.3607 17.5128 80.8705C16.2776 81.7078 15.7285 82.1058 13.1207 84.0411C12.5854 84.4254 12.0638 84.7136 11.5423 85.0568L11.1442 85.3176C11.0455 85.4004 10.9275 85.457 10.8011 85.4823L10.1697 85.6332C9.81718 85.7119 9.45164 85.7119 9.09912 85.6332C8.72341 85.5982 8.35896 85.4861 8.02853 85.3038C7.31228 84.8494 6.81558 84.1193 6.65598 83.2862C6.55379 82.8362 6.51225 82.3746 6.53245 81.9136C6.53245 81.6391 6.53245 81.4058 6.53245 81.1176L6.66971 80.2666C6.88281 79.1132 7.19039 77.9793 7.58932 76.8764C7.78147 76.2725 7.89128 76.0666 8.02853 75.696C8.16579 75.3254 8.31677 75.0234 8.45402 74.694C11.2695 68.3191 14.8112 62.2903 19.0089 56.7274C19.9423 55.547 20.8893 54.3803 21.8776 53.2548C22.3717 52.6921 22.8658 52.1156 23.3736 51.5803L24.1148 50.7842L24.403 50.5097L24.6501 50.2764L24.7599 50.1666C24.7599 50.1666 24.7599 50.0705 24.7599 50.0293C24.7599 49.9881 24.4717 49.6999 24.3207 49.5352L22.1795 47.4078C20.5599 45.8019 18.954 44.1411 17.4168 42.4254C14.2144 38.9604 11.4487 35.1161 9.18147 30.9783C8.31436 29.3746 7.58874 27.6983 7.01285 25.9685C6.86187 25.5293 6.75206 25.0764 6.62853 24.596C6.48287 24.0077 6.36833 23.4121 6.28539 22.8117C6.20374 22.2112 6.16247 21.6059 6.16187 20.9999C6.17521 20.4371 6.23952 19.8766 6.35402 19.3254C6.45055 18.3248 6.94512 17.4049 7.72657 16.7725C8.70597 16.7892 9.65951 17.0895 10.4717 17.6372C11.4599 18.2274 12.4756 19.0097 13.4776 19.7234L15.5776 21.2332C19.8091 24.257 24.3899 26.7594 29.2207 28.6862C30.2638 29.0842 31.2932 29.3999 32.3501 29.7293C34.2991 30.3332 35.5893 30.5803 36.4677 30.9234C37.1795 31.1768 37.8263 31.5846 38.3619 32.1176C38.5878 32.297 38.7989 32.4944 38.9932 32.7078C39.2266 33.0234 38.9109 33.3529 38.0599 33.696C36.7924 34.1599 35.4327 34.3152 34.0932 34.1489C31.5162 33.8877 28.981 33.3115 26.5442 32.4332C24.0854 31.5713 21.7102 30.4871 19.4481 29.194C17.2246 27.9038 15.0697 26.4489 12.9834 25.0764L11.4325 23.9783L10.7325 23.4705V23.6489C10.8285 24.0332 10.9246 24.4176 11.0481 24.8156C11.2961 25.6122 11.5847 26.3956 11.9128 27.1627C13.3543 30.3801 15.1992 33.401 17.403 36.1529L17.2795 36.1666Z" fill="#020304" fill-opacity="0.06"/>
<path d="M72.6203 8.14087C72.6723 8.04982 72.7138 7.95311 72.7438 7.85263C72.7878 7.77183 72.8158 7.68327 72.8261 7.59185C72.8678 7.51965 72.8678 7.43071 72.8261 7.35851C72.7146 7.29263 72.5833 7.26832 72.4556 7.28989C72.2836 7.30587 72.1136 7.33804 71.9477 7.38597H71.8105L71.2203 7.6742L69.9575 8.33302C68.585 9.08793 67.2124 10.0624 65.8399 10.9134C60.9263 13.9369 56.3281 17.4453 52.1144 21.386C50.2652 23.151 48.575 25.0754 47.0634 27.1369C45.0732 29.7036 43.3987 32.4487 41.5732 35.084C40.9967 35.9075 40.2006 35.4409 39.6928 34.2056C39.0738 32.5355 39.1681 30.6845 39.9536 29.086C40.7745 27.4725 41.6911 25.9096 42.6987 24.4056C43.7342 22.9616 44.862 21.5862 46.0752 20.2879C48.4467 17.6456 51.0666 15.2372 53.8987 13.0958C57.2889 10.5428 60.5007 7.53695 64.1105 5.09381C65.1124 4.42126 66.1281 3.72126 67.1712 3.15851C67.6928 2.85655 68.2144 2.55459 68.7634 2.26636C69.5732 1.82714 70.4105 1.3742 71.2477 1.01734C72.7177 0.320487 74.329 -0.0271235 75.9556 0.00165141C76.6823 0.0212751 77.384 0.271197 77.9595 0.715377C78.2284 0.953819 78.4156 1.27069 78.4948 1.62126L78.8654 2.60949C78.9578 2.82457 79.0224 3.05058 79.0575 3.28204V4.65459C79.1181 5.13308 79.1181 5.61729 79.0575 6.09577C78.8791 7.07028 78.7967 8.04479 78.5359 9.0193C78.2752 9.99381 78.0693 10.5703 77.8359 11.284L77.1222 13.233C75.5438 17.3507 73.6222 21.2487 72.2497 25.2428C71.2475 28.245 70.634 31.3632 70.4242 34.5213C70.4242 35.1801 70.4242 35.8938 70.4242 36.484C70.3556 38.8722 70.1634 39.5036 68.4889 40.2722C68.1183 40.4369 67.7477 40.6566 67.3771 40.7938C66.1281 41.2605 64.8928 40.2036 64.4948 37.884C64.0798 34.5499 64.3365 31.1664 65.2497 27.933C66.0737 24.818 67.1242 21.7674 68.3928 18.8056C69.3078 16.701 70.1908 14.601 71.0418 12.5056C71.4948 11.4624 71.783 10.4605 72.1536 9.44479L72.3595 8.71734L72.4556 8.34675V8.25067L72.6203 8.14087Z" fill="#020304" fill-opacity="0.06"/>
<path d="M1.33008 20.5342C1.04812 19.2351 0.900935 17.9105 0.890869 16.5812C0.915809 16.0342 0.970794 15.4889 1.05558 14.9479C1.1791 14.4675 1.28891 13.9871 1.42616 13.5067C1.74917 12.784 2.21621 12.1349 2.79871 11.5989C3.12512 11.31 3.51563 11.103 3.93793 10.995C4.2695 10.9055 4.61035 10.8548 4.95361 10.844C5.70505 10.828 6.45461 10.9252 7.17714 11.1322C8.16346 11.4472 9.11176 11.8707 10.0046 12.395L10.9105 12.9852L11.8164 13.644L13.6418 15.0165L15.4399 16.3891C15.7281 16.6224 16.0301 16.842 16.3183 17.0891L16.8124 17.5008C21.133 21.3576 25.8275 24.7739 30.8262 27.6989C33.0396 28.8942 35.3902 29.816 37.8262 30.444C40.8669 31.316 43.9904 31.8681 47.1458 32.091C48.1477 32.1597 48.1615 32.9008 47.3654 33.8479C46.1322 35.1614 44.4424 35.9523 42.6438 36.0577C40.7618 36.1226 38.8779 36.0123 37.0164 35.7283C35.1891 35.3595 33.4013 34.8172 31.6771 34.1087C28.3126 32.7394 25.1277 30.9648 22.1928 28.8244C20.4634 27.5616 18.6517 26.3812 16.8399 25.2008L14.0948 23.4165L12.7222 22.4969L12.3791 22.2361L12.1732 22.0714C11.6791 21.6322 11.1026 21.1106 10.4301 20.5753C10.0896 20.273 9.69957 20.0316 9.27714 19.8616C9.00263 19.7793 8.92028 20.0126 8.86538 20.1636C8.79327 20.3329 8.75593 20.5149 8.75558 20.6989C8.72156 20.9677 8.72156 21.2398 8.75558 21.5087C8.82121 22.1264 8.94061 22.7372 9.11244 23.3342C9.20852 23.6499 9.31832 23.9793 9.42812 24.3224L9.75754 25.1459L10.1556 26.093C11.8041 29.9637 13.8658 33.6452 16.3046 37.0734C18.2429 39.5903 20.4937 41.8503 23.0026 43.7989L24.6634 44.9793C26.3654 46.7499 26.6399 47.5734 26.1869 49.2753C26.0771 49.6734 26.0222 50.0714 25.8987 50.4283C25.6761 51.0152 25.1486 51.4319 24.5262 51.5126C23.5881 51.6222 22.6381 51.4702 21.7811 51.0734C20.1739 50.4635 18.694 49.5607 17.4164 48.4106C16.144 47.3463 14.9513 46.1903 13.8477 44.9518C11.662 42.4608 9.71791 39.7676 8.04185 36.9087C6.78533 34.7872 5.6489 32.5968 4.63793 30.3479C4.37714 29.7852 4.13008 29.2224 3.88303 28.6459L3.52616 27.8224L3.10067 26.7518C2.30442 24.7234 1.65311 22.6411 1.15165 20.5204L1.33008 20.5342Z" fill="#020304" fill-opacity="0.06"/>
<path d="M67.885 83.3833C66.1556 79.2657 64.5223 75.2716 62.9301 70.7833C62.5944 69.8527 62.3103 68.9042 62.0791 67.9422C61.8287 67.0468 61.6814 66.1258 61.6399 65.1971C61.591 64.3721 61.6886 63.5449 61.9281 62.7539C62.034 62.3794 62.196 62.0231 62.4085 61.6971C62.4085 61.6971 62.4085 61.5186 62.6007 61.4775C62.6473 61.3824 62.7074 61.2946 62.7791 61.2167C62.9071 61.0741 63.0498 60.9453 63.2046 60.8324C64.6414 59.9072 66.3493 59.496 68.0497 59.6657C68.9968 59.6657 70.0399 59.6657 70.9183 59.7755L72.7576 59.899C75.9144 60.1186 79.0027 60.0912 82.0497 60.0912C85.5097 60.1477 88.9657 59.8302 92.3576 59.1441C93.1674 58.9657 93.9772 58.7461 94.7595 58.499L95.9125 58.0873L96.736 57.7441C97.4186 57.4573 98.0457 57.0532 98.5889 56.55C98.912 56.2786 99.1859 55.9536 99.3987 55.5892C99.3987 55.3696 99.1379 55.3147 98.9732 55.2461C98.7951 55.1796 98.6113 55.1291 98.4242 55.0951C98.0536 54.999 97.6556 54.9304 97.2438 54.8618L95.7889 54.6284C90.834 53.9284 85.7693 53.2559 80.8281 52.0481C77.6291 51.2272 74.5206 50.0869 71.5497 48.6441C68.5301 47.1829 65.8221 45.1507 63.5752 42.6598C62.2027 41.0265 63.0399 40.7932 64.783 41.2873C66.5262 41.7814 69.3948 42.7696 72.5242 44.0324C75.2095 45.102 77.9898 45.9154 80.8281 46.4618C83.6968 47.052 86.5791 47.6971 89.5438 48.1226C91.0262 48.3559 92.5085 48.5481 94.0183 48.7539L96.2968 49.0422L98.1497 49.2618C98.8909 49.2618 99.6321 49.4128 100.36 49.5088C101.715 49.6496 103.053 49.9255 104.354 50.3324C105.239 50.635 106.03 51.1652 106.646 51.8696C106.906 52.1415 107.124 52.4516 107.291 52.7892C107.52 53.2078 107.612 53.6882 107.552 54.1618C107.484 55.1128 107.152 56.0259 106.591 56.7971C106.069 57.5108 105.452 58.1696 104.834 58.8971C103.699 60.0234 102.437 61.0138 101.073 61.8481L99.9889 62.4794C99.8074 62.5909 99.6195 62.6917 99.4262 62.7814L98.9321 63.0284C98.4242 63.2618 97.9027 63.4814 97.3811 63.6873C95.3424 64.4799 93.2392 65.0953 91.0948 65.5265C86.9586 66.3353 82.7502 66.7171 78.536 66.6657C76.2713 66.6657 74.034 66.5559 71.8242 66.4598C71.1791 66.4598 70.9321 66.4598 70.7674 66.4598H70.1497H69.5046C69.3125 66.4598 69.0105 66.4598 68.9144 66.652C68.8206 67.0584 68.8206 67.4809 68.9144 67.8873L69.0654 68.5324L69.1477 68.8618L69.3674 69.5755C70.0125 71.5794 70.7399 73.5971 71.6183 75.601C73.6772 80.5422 75.9281 85.4559 78.1379 90.4245C79.1674 92.8402 80.7595 96.052 80.9928 98.303C81.0395 98.8281 81.0395 99.3563 80.9928 99.8814C81.0046 100.397 80.8006 100.895 80.4301 101.254C79.4136 101.851 78.2446 102.137 77.0674 102.077C74.3166 101.894 71.6338 101.142 69.1889 99.8677C67.2371 98.9277 65.3523 97.8546 63.5477 96.6559C57.8882 93.1346 52.9924 88.5141 49.1497 83.0677C48.2912 81.8169 47.5339 80.4997 46.885 79.1284C46.0618 77.2442 45.6725 75.1991 45.7458 73.1441C45.7687 72.0465 46.27 71.0136 47.1183 70.3167C47.4321 70.0017 47.7823 69.7253 48.1615 69.4932C49.383 68.9441 50.4536 70.8657 51.9634 73.8853C52.2928 74.4343 52.5674 74.9833 52.8968 75.5049L53.4046 76.301C53.5419 76.5755 53.7066 76.8363 53.8713 77.0971C54.4966 78.1747 55.184 79.215 55.9301 80.2128C57.4708 82.271 59.1935 84.1865 61.0772 85.9363C62.9968 87.746 65.0627 89.3941 67.2536 90.8637C68.3517 91.5775 69.4772 92.2363 70.6164 92.9088C70.9046 93.0735 71.1928 93.2108 71.4811 93.3618L71.8928 93.5677C71.8928 93.5677 71.9752 93.6637 72.0027 93.5677C72.0027 93.5677 72.0027 93.5677 72.0027 93.4441L71.687 92.703L70.3144 89.6971L67.5693 83.6304L67.885 83.3833Z" fill="#020304" fill-opacity="0.06"/>
<path d="M9.16747 79.4024C8.76683 79.8475 8.46303 80.371 8.27532 80.9396C8.27532 81.0769 8.19296 81.3102 8.27532 81.3788C8.35767 81.4475 8.57728 81.3788 8.78316 81.2416C8.92095 81.1577 9.05385 81.0661 9.1812 80.9671C9.36911 80.7869 9.5817 80.6344 9.81257 80.5141C9.71649 80.6514 11.6243 79.4024 12.8596 78.6338C14.0949 77.8651 15.6047 76.9455 16.9773 76.1632C19.7224 74.5436 22.6185 73.1298 25.4871 71.7024C28.0812 70.5083 30.6341 69.2043 33.3106 68.12C34.1753 67.7769 35.0263 67.4338 35.9185 67.1592C36.8106 66.8847 37.7302 66.6514 38.6636 66.4181C39.6038 66.2502 40.5522 66.1311 41.5047 66.0612C41.7468 66.0406 41.9901 66.0406 42.2322 66.0612L42.9734 66.2396L44.4283 66.6377C45.6087 67.022 45.3479 67.4749 44.4283 68.4083C43.9753 68.8887 43.3577 69.52 42.7263 70.2063C42.1075 70.851 41.3318 71.3239 40.4753 71.5788C38.9518 72.1279 37.442 72.7181 35.9047 73.4181C34.3675 74.1181 32.8028 74.7906 31.2243 75.3945C28.0949 76.7671 24.9518 78.4141 21.74 79.9926C20.793 80.4867 19.8322 80.9808 18.8851 81.5436C17.9381 82.1063 17.0459 82.7102 16.14 83.3141L13.2577 85.3318L8.71453 88.6396L7.17728 89.7514L6.62826 90.0945C6.47728 90.0945 6.3263 90.2043 6.17532 90.2592L5.28316 90.6024C5.00991 90.7185 4.73039 90.8194 4.4459 90.9043L3.77336 91.0141C3.37706 91.1045 2.97197 91.1505 2.56551 91.1514C2.3026 91.1451 2.04453 91.0794 1.81061 90.9592C1.52508 90.8015 1.28785 90.569 1.12434 90.2867C0.615644 89.2772 0.397077 88.1464 0.492963 87.02C0.590584 85.5585 0.871883 84.1151 1.33022 82.7239C1.67336 81.6808 2.05767 80.6102 2.51061 79.5534L3.81453 76.5475C4.48708 75.1749 5.18708 73.8024 5.91453 72.4298C8.14346 68.3293 10.5996 64.3565 13.2714 60.5298L16.2224 56.0279C17.1635 54.4927 18.2043 53.0209 19.3381 51.622C19.8459 51.0181 20.3126 50.3867 20.8753 49.8102C21.5702 48.986 22.4495 48.3371 23.442 47.9161C24.1661 47.7497 24.9252 47.8318 25.5969 48.1494C25.9174 48.2535 26.2294 48.382 26.5302 48.5337C26.9694 48.7945 27.1067 49.2887 27.093 49.9887C27.0855 50.8835 26.8391 51.7601 26.3792 52.5279L24.0322 56.5632C23.2636 57.9357 22.3165 59.1298 21.4518 60.42C19.6949 62.9867 17.9243 65.5945 16.2087 68.2436C14.8819 70.1743 13.5962 72.1416 12.3518 74.1455C11.7341 75.1475 11.1439 76.1632 10.5675 77.1788L9.73022 78.7298L9.35963 79.4298L9.16747 79.4024Z" fill="#020304" fill-opacity="0.06"/>
</svg>
