<svg width="42" height="42" viewBox="0 0 42 42" fill="none" xmlns="http://www.w3.org/2000/svg">
<path d="M20.2424 1.00187C18.3671 0.809564 13.9436 15.5209 12.6452 15.5209C11.3468 15.5209 1.39371 14.1748 1.00904 15.5209C0.624372 16.867 12.6452 25.5208 12.6452 26.7708C12.6452 28.0208 9.85638 40.0398 10.6738 40.9533C11.4912 41.8667 19.3288 29.0784 20.2424 29.3188C21.156 29.5592 32.9845 41.6263 33.7057 40.9533C34.427 40.2802 27.1664 28.1169 27.1664 26.7708C27.1664 25.4246 40.197 16.5786 40.9663 15.5209C41.7357 14.4632 29.0897 15.5209 27.1664 15.5209C25.2431 15.5209 22.1176 1.19417 20.2424 1.00187Z" stroke="#D3AAFE" stroke-width="2" stroke-linecap="round"/>
</svg>
